<svg width="45" height="32" viewBox="0 0 45 32" fill="none" xmlns="http://www.w3.org/2000/svg">
<rect x="0.5" y="0.5" width="44" height="30.7647" rx="4.79412" fill="#1A1A1A" stroke="#333333"/>
<path d="M18.5293 30.6765L43.6764 23.0662V26.7059C43.6764 28.8988 41.8987 30.6765 39.7058 30.6765H18.5293Z" fill="#FD6020"/>
<path fill-rule="evenodd" clip-rule="evenodd" d="M38.9035 12.0584C40.287 12.0584 41.0479 12.6984 41.0479 13.9073C41.117 14.8317 40.4945 15.6139 39.6644 15.7561L41.5321 18.3872H40.0794L38.4884 15.8272H38.3501V18.3872H37.1741V12.0584H38.9035ZM38.3501 14.9739H38.696C39.4569 14.9739 39.8028 14.6184 39.8028 13.9784C39.8028 13.4095 39.4569 13.054 38.696 13.054H38.3501V14.9739ZM33.0929 18.3872H36.4132V17.3205H34.2688V15.6139H36.344V14.5473H34.2688V13.1251H36.4132V12.0584H33.0929V18.3872ZM29.6342 16.325L28.0432 12.0584H26.798L29.3575 18.5294H29.98L32.5395 12.0584H31.2943L29.6342 16.325ZM15.592 15.2584C15.592 17.0361 16.9755 18.5294 18.7048 18.5294C19.2582 18.5294 19.7424 18.3872 20.2266 18.1738V16.7517C19.8808 17.1783 19.3965 17.4628 18.8431 17.4628C17.7364 17.4628 16.8371 16.6094 16.8371 15.4717V15.3295C16.7679 14.1917 17.6672 13.1962 18.774 13.1251C19.3274 13.1251 19.8808 13.4095 20.2266 13.8362V12.414C19.8116 12.1296 19.2582 12.0585 18.774 12.0585C16.9755 11.9162 15.592 13.4095 15.592 15.2584ZM13.4476 14.4762C12.7558 14.1917 12.5483 14.0495 12.5483 13.694C12.6175 13.2673 12.9634 12.9118 13.3784 12.9829C13.7243 12.9829 14.0701 13.1962 14.3468 13.4806L14.9694 12.6273C14.4852 12.2007 13.8626 11.9162 13.2401 11.9162C12.2716 11.8451 11.4415 12.6273 11.3724 13.6229V13.694C11.3724 14.5473 11.7182 15.045 12.825 15.4006C13.1017 15.4717 13.3784 15.6139 13.6551 15.7561C13.8626 15.8984 14.001 16.1117 14.001 16.3961C14.001 16.8939 13.5859 17.3205 13.1709 17.3205H13.1017C12.5483 17.3205 12.0641 16.965 11.8566 16.4672L11.0957 17.2494C11.5107 18.0316 12.3408 18.4583 13.1709 18.4583C14.2777 18.5294 15.1769 17.6761 15.2461 16.5383V16.325C15.1769 15.4717 14.831 15.045 13.4476 14.4762ZM9.43543 18.3872H10.6114V12.0584H9.43543V18.3872ZM3.9707 12.0584H5.70005H6.04592C7.70609 12.1296 9.0204 13.5517 8.95122 15.2584C8.95122 16.1828 8.53618 17.0361 7.84444 17.6761C7.22188 18.1738 6.46096 18.4583 5.70005 18.3872H3.9707V12.0584ZM5.4926 17.3205C6.04599 17.3916 6.66856 17.1783 7.0836 16.8227C7.49864 16.3961 7.70617 15.8272 7.70617 15.1872C7.70617 14.6183 7.49864 14.0495 7.0836 13.6228C6.66856 13.2673 6.04599 13.0539 5.4926 13.1251H5.14673V17.3205H5.4926Z" fill="white"/>
<path fill-rule="evenodd" clip-rule="evenodd" d="M23.7543 11.9117C22.0249 11.9117 20.5723 13.3339 20.5723 15.1828C20.5723 16.9605 21.9557 18.4538 23.7543 18.5249C25.5528 18.596 26.9363 17.1027 27.0054 15.2539C26.9363 13.405 25.5528 11.9117 23.7543 11.9117V11.9117Z" fill="#FD6020"/>
</svg>
