<svg width="45" height="32" viewBox="0 0 45 32" fill="none" xmlns="http://www.w3.org/2000/svg">
<rect x="0.5" y="0.5" width="44" height="30.7647" rx="4.79412" fill="#1A1A1A" stroke="#333333"/>
<path fill-rule="evenodd" clip-rule="evenodd" d="M22.7371 22.2743C21.17 23.5952 19.1372 24.3926 16.9158 24.3926C11.9594 24.3926 7.94141 20.4225 7.94141 15.525C7.94141 10.6275 11.9594 6.65735 16.9158 6.65735C19.1372 6.65735 21.17 7.45479 22.7372 8.77576C24.3043 7.45481 26.3371 6.65737 28.5585 6.65737C33.5149 6.65737 37.5329 10.6276 37.5329 15.525C37.5329 20.4225 33.5149 24.3927 28.5585 24.3927C26.3371 24.3927 24.3043 23.5952 22.7371 22.2743Z" fill="#ED0006"/>
<path fill-rule="evenodd" clip-rule="evenodd" d="M22.7373 22.2743C24.6669 20.6478 25.8905 18.2276 25.8905 15.525C25.8905 12.8224 24.6669 10.4022 22.7373 8.77568C24.3044 7.45476 26.3372 6.65735 28.5585 6.65735C33.515 6.65735 37.533 10.6275 37.533 15.525C37.533 20.4225 33.515 24.3926 28.5585 24.3926C26.3372 24.3926 24.3044 23.5952 22.7373 22.2743Z" fill="#F9A000"/>
<path fill-rule="evenodd" clip-rule="evenodd" d="M22.7371 22.2743C24.6667 20.6478 25.8903 18.2276 25.8903 15.525C25.8903 12.8224 24.6667 10.4022 22.7371 8.77576C20.8075 10.4022 19.584 12.8224 19.584 15.525C19.584 18.2276 20.8075 20.6478 22.7371 22.2743Z" fill="#FF5E00"/>
</svg>
