<svg width="19" height="18" viewBox="0 0 19 18" fill="none" xmlns="http://www.w3.org/2000/svg">
<g id="Star 1">
<g id="Group">
<path id="Vector" d="M9.81008 13.4111L13.3566 15.6577C13.81 15.9446 14.3725 15.5177 14.2381 14.9884L13.2138 10.9581C13.1848 10.8458 13.1882 10.7276 13.2234 10.6172C13.2586 10.5067 13.3243 10.4085 13.4129 10.3337L16.5933 7.68712C17.0106 7.33949 16.7958 6.64593 16.2586 6.61105L12.1056 6.34105C11.9938 6.33312 11.8866 6.29359 11.7964 6.22707C11.7061 6.16055 11.6367 6.06977 11.596 5.9653L10.0469 2.06493C10.0047 1.95408 9.92984 1.85867 9.83219 1.79136C9.73455 1.72404 9.61875 1.68799 9.50015 1.68799C9.38155 1.68799 9.26575 1.72404 9.1681 1.79136C9.07046 1.85867 8.99558 1.95408 8.9534 2.06493L7.40427 5.9653C7.36372 6.06988 7.29429 6.16077 7.20406 6.2274C7.11383 6.29402 7.00652 6.33364 6.89465 6.34162L2.74171 6.61161C2.20508 6.64593 1.98908 7.33949 2.40702 7.68712L5.5874 10.3342C5.67588 10.409 5.7415 10.5072 5.77673 10.6175C5.81195 10.7278 5.81534 10.8459 5.78652 10.9581L4.83702 14.6959C4.67558 15.3309 5.35115 15.8434 5.89452 15.4986L9.19077 13.4111C9.28342 13.3522 9.39093 13.3209 9.50071 13.3209C9.61049 13.3209 9.718 13.3522 9.81065 13.4111H9.81008Z" fill="#FF8A00"/>
</g>
</g>
</svg>
