<svg width="45" height="32" viewBox="0 0 45 32" fill="none" xmlns="http://www.w3.org/2000/svg">
<rect x="0.5" y="0.5" width="44" height="30.7647" rx="4.79412" fill="#1A1A1A" stroke="#333333"/>
<path fill-rule="evenodd" clip-rule="evenodd" d="M14.2284 20.9888H11.5022L9.45797 12.9604C9.36094 12.5911 9.15492 12.2647 8.85187 12.1108C8.09557 11.7241 7.26218 11.4163 6.35303 11.2611V10.952H10.7446C11.3507 10.952 11.8053 11.4163 11.881 11.9556L12.9417 17.7467L15.6665 10.952H18.3169L14.2284 20.9888ZM19.8322 20.9888H17.2576L19.3776 10.952H21.9522L19.8322 20.9888ZM25.283 13.7326C25.3588 13.192 25.8133 12.8829 26.3437 12.8829C27.1771 12.8053 28.0849 12.9605 28.8425 13.3459L29.2971 11.1849C28.5395 10.8758 27.7061 10.7206 26.9498 10.7206C24.4509 10.7206 22.6326 12.1108 22.6326 14.0403C22.6326 15.5082 23.9206 16.2789 24.8297 16.7432C25.8133 17.2062 26.1921 17.5153 26.1164 17.9782C26.1164 18.6727 25.3588 18.9818 24.6025 18.9818C23.6933 18.9818 22.7842 18.7503 21.9521 18.3636L21.4975 20.5259C22.4067 20.9112 23.3903 21.0665 24.2994 21.0665C27.1013 21.1427 28.8425 19.7538 28.8425 17.6691C28.8425 15.0439 25.283 14.89 25.283 13.7326ZM37.853 20.9888L35.8087 10.952H33.6129C33.1583 10.952 32.7038 11.2611 32.5522 11.7241L28.7668 20.9888H31.4171L31.9461 19.5223H35.2026L35.5056 20.9888H37.853ZM33.9918 13.655L34.7481 17.4377H32.6281L33.9918 13.655Z" fill="white"/>
</svg>
